<?xml version="1.0" standalone="no"?><!DOCTYPE svg PUBLIC "-//W3C//DTD SVG 1.1//EN" "http://www.w3.org/Graphics/SVG/1.1/DTD/svg11.dtd"><svg t="1716682132995" class="icon" viewBox="0 0 1024 1024" version="1.1" xmlns="http://www.w3.org/2000/svg" p-id="18183" xmlns:xlink="http://www.w3.org/1999/xlink" width="32" height="32"><path d="M864 832H192V160c0-19.2-12.8-32-32-32s-32 12.8-32 32v672c0 35.2 28.8 64 64 64h672c19.2 0 32-12.8 32-32s-12.8-32-32-32z" p-id="18184" fill="#ffffff"></path><path d="M320 416c-16 0-32 16-32 32v256c0 16 16 32 32 32 19.2 0 32-16 32-32v-256c0-16-16-32-32-32zM480 288c-16 0-32 16-32 32v384c0 16 16 32 32 32 19.2 0 32-16 32-32V320c0-16-16-32-32-32zM640 512c-16 0-32 16-32 32v160c0 16 16 32 32 32 19.2 0 32-16 32-32v-160c0-16-16-32-32-32zM800 352c-16 0-32 16-32 32v320c0 16 16 32 32 32 19.2 0 32-16 32-32V384c0-16-16-32-32-32z" p-id="18185" fill="#ffffff"></path></svg>