<?xml version="1.0" ?><!DOCTYPE svg  PUBLIC '-//W3C//DTD SVG 1.1//EN'  'http://www.w3.org/Graphics/SVG/1.1/DTD/svg11.dtd'><svg enable-background="new 0 0 128 128" id="Layer_1" version="1.1" viewBox="0 0 128 128" xml:space="preserve" xmlns="http://www.w3.org/2000/svg" xmlns:xlink="http://www.w3.org/1999/xlink"><g><path clip-rule="evenodd" d="M54.3,67.9c-0.2,0-0.4-0.1-0.6-0.1c-0.5-0.1-1.1-0.3-1.9-0.5   c-0.8-0.3-1.3-0.6-1.6-1c-0.3-0.4-0.4-1-0.4-1.6c0-1.4,0.6-2.5,1.9-3.4c0.7-0.5,1.6-0.9,2.5-1.1V67.9z M58.4,73.2   c1.3,0.3,2.4,0.7,3.1,1.1c1.2,0.6,1.7,1.7,1.7,3.2c0,1.4-0.6,2.5-1.9,3.4c-0.8,0.5-1.8,0.9-2.9,1.1V73.2z M73.5,53.9   c-4.4-4.4-10.4-7.1-17.1-7.1c-6.7,0-12.8,2.7-17.1,7.1c-4.4,4.4-7.1,10.4-7.1,17.1c0,6.7,2.7,12.8,7.1,17.1   c4.4,4.4,10.4,7.1,17.1,7.1c6.7,0,12.8-2.7,17.1-7.1c4.4-4.4,7.1-10.4,7.1-17.1C80.6,64.3,77.9,58.3,73.5,53.9z M56.4,42.8   c7.8,0,14.9,3.2,20,8.3c5.1,5.1,8.3,12.2,8.3,20c0,7.8-3.2,14.9-8.3,20c-5.1,5.1-12.2,8.3-20,8.3c-7.8,0-14.9-3.2-20-8.3   c-5.1-5.1-8.3-12.2-8.3-20c0-7.8,3.2-14.9,8.3-20C41.5,45.9,48.6,42.8,56.4,42.8z M78.6,48.8c-5.7-5.7-13.5-9.2-22.2-9.2   c-0.1,0-0.3,0-0.4,0h0l0,0c-0.4,0-0.8,0-1.2,0l0,0c-8,0.4-15.3,3.8-20.6,9.2c-5.7,5.7-9.2,13.5-9.2,22.2c0,8.7,3.5,16.5,9.2,22.2   c5.7,5.7,13.5,9.2,22.2,9.2c8.7,0,16.5-3.5,22.2-9.2c5.6-5.6,9.1-13.3,9.2-21.8l0,0v0l0,0v0l0-0.4C87.8,62.4,84.3,54.5,78.6,48.8z    M91.7,68.6c0,0.1,0,0.2,0,0.4l0,0l0,0.1l0,0.4l0,0l0,0.1l0,0l0,0.4l0,0v0l0,0.4v0l0,0c0.8-1.2,1.5-2.4,2-3.7l0,0   c1.3-3,2-6.3,2-9.7c0-6.7-2.7-12.8-7.1-17.1c-4.4-4.4-10.4-7.1-17.1-7.1c-3.1,0-6.1,0.6-8.8,1.7c-1,0.4-2,0.8-2.9,1.4l0.3,0l0.1,0   l0.3,0l0,0l0.1,0l0.3,0l0,0l0.1,0l0,0l0.3,0l0.1,0l0,0l0.3,0l0,0l0.1,0l0.3,0l0.1,0l0,0l0,0l0,0l0,0l0,0l0,0l0,0l0,0l0,0l0,0l0,0   l0,0l0,0l0,0l0,0l0,0l0,0l0,0l0,0l0,0l0,0l0.1,0l0,0l0,0l0,0l0,0l0,0l0,0l0,0l0,0l0,0l0,0l0,0l0,0l0,0l0,0l0,0l0,0l0,0l0,0l0,0l0,0   l0,0l0,0l0,0l0,0l0,0l0,0l0.1,0l0.3,0.1l0,0l0.1,0l0.3,0.1l0,0l0.1,0l0.2,0.1l0,0l0.1,0l0,0l0.3,0.1l0.1,0l0.3,0.1l0.1,0l0,0l0,0   l0,0l0,0l0,0l0,0l0,0l0,0l0.2,0.1l0,0l0,0l0,0l0,0l0,0l0,0l0,0l0,0l0.2,0.1l0,0l0,0l0,0l0,0l0,0l0,0l0,0l0,0l0,0l0,0l0,0l0.2,0.1   l0,0l0,0l0,0l0,0l0,0l0.1,0l0.2,0.1l0,0l0.2,0.1l0,0l0.2,0.1l0.1,0l0.2,0.1l0,0l0.2,0.1l0.2,0.1l0.2,0.1l0,0l0.2,0.1l0,0l0,0l0,0   l0,0l0,0l0,0l0,0l0,0l0,0l0,0l0,0l0,0l0,0l0,0l0,0l0,0l0,0l0.2,0.1l0,0l0,0l0,0l0,0l0,0l0,0l0,0l0,0l0,0l0,0l0,0l0,0l0,0l0,0   l0.2,0.1l0,0l0,0l0,0l0,0l0,0l0,0l0,0l0.2,0.1l0.2,0.1l0,0l0.2,0.1l0.2,0.1l0,0l0.2,0.1l0,0l0.2,0.1l0.2,0.1l0,0l0.2,0.1l0,0   l0.1,0.1l0,0l0.2,0.1l0,0l0.3,0.2l0.3,0.2l0,0l0.2,0.1l0.2,0.1l0.2,0.1l0.2,0.1l0.2,0.1l0,0l0.1,0.1l0.2,0.1l0,0l0.1,0.1l0,0   l0.2,0.1l0.2,0.1l0.1,0.1l0.2,0.1l0,0l0.2,0.1l0.3,0.2l0,0l0.1,0.1l0.2,0.1l0,0l0.1,0.1l0,0l0.2,0.1l0.2,0.1l0,0l0.2,0.1l0,0   l0.2,0.1l0,0l0.2,0.1l0,0l0.2,0.1l0,0l0.2,0.1l0.1,0.1l0,0l0.3,0.2l0.1,0l0,0l0,0l0,0l0,0l0.3,0.2l0,0l0,0l0,0l0,0l0,0l0.3,0.2l0,0   l0.1,0.1l0.2,0.2l0.1,0.1l0.2,0.2l0,0l0.1,0l0.2,0.2l0.1,0.1l0,0l0.2,0.2l0.1,0l0,0l0.2,0.2l0.1,0.1l0,0l0.3,0.2l0,0l0,0l0,0l0,0   l0,0l0,0l0,0l0.2,0.2l0,0l0,0l0,0l0,0l0,0l0,0l0,0l0,0l0,0l0.2,0.2l0,0l0.1,0.1l0,0l0.2,0.2l0,0l0.1,0.1l0.2,0.2l0.1,0.1l0,0   l0.2,0.2l0.1,0.1l0.2,0.2l0,0l0,0l0,0l0,0l0,0l0,0l0,0l0,0l0,0l0,0l0,0l0.2,0.2l0,0l0,0l0,0l0,0l0,0l0,0l0,0l0.3,0.3l0,0l0.3,0.3   l0,0l0.3,0.3l0,0l0.1,0.1l0.2,0.2l0,0l0.3,0.3l0,0l0.2,0.2l0,0l0.1,0.1l0.1,0.2l0,0l0.1,0.1l0.1,0.2l0,0l0.1,0.1l0,0l0.1,0.1l0,0   l0.2,0.2l0.1,0.1l0,0l0.1,0.2l0,0l0.1,0.2l0.1,0.2l0,0l0.1,0.1l0,0l0.2,0.2l0,0l0.1,0.1l0.2,0.2l0,0l0.1,0.2l0.1,0.2l0.1,0.2   l0.1,0.2l0,0l0.1,0.2l0.1,0.2l0.1,0.2l0,0l0.1,0.2l0.1,0.2l0,0l0.1,0.2l0.1,0.2l0.1,0.1l0.1,0.2l0,0l0.1,0.1l0,0l0.1,0.2l0.1,0.2   l0.1,0.2l0.1,0.1l0.1,0.2l0.1,0.1l0.1,0.3l0.1,0.1l0.2,0.3l0.1,0.1l0,0l0.1,0.2l0,0l0.1,0.1L88,55l0,0l0.1,0.1l0,0l0.1,0.2l0,0   l0.1,0.2l0.1,0.2l0.1,0.1l0.1,0.3l0,0l0,0.1l0,0l0.1,0.3l0,0.1l0.1,0.3l0,0l0,0.1l0.1,0.3l0,0l0,0.1l0,0l0.1,0.2l0,0l0,0.1l0.1,0.3   l0,0l0,0l0,0l0,0l0,0l0,0l0,0l0,0l0,0l0,0l0,0l0,0l0,0l0,0l0,0l0,0l0,0.1l0,0l0,0l0,0l0,0l0,0l0,0l0,0l0,0l0,0l0,0l0,0l0,0l0,0l0,0   l0,0l0,0l0.1,0.1l0,0l0,0l0,0l0,0l0.1,0.1l0,0l0,0l0,0l0,0l0,0l0,0l0,0l0,0l0,0l0,0l0,0.1l0.1,0.3l0,0l0,0l0.1,0.4l0,0l0,0.1   l0.1,0.2l0,0.1l0,0.1l0,0.1l0,0.2l0,0.1l0,0.1l0,0.1l0,0.1l0,0l0,0.2l0,0.1l0,0.1l0,0.1l0,0.2l0,0.1l0,0.1l0,0.1l0,0.1l0,0.1l0,0.1   l0,0.1l0,0.2l0,0.1l0,0.1l0,0.1l0,0.2l0,0.1l0,0.1l0,0l0,0.1l0,0.1l0,0.1l0,0.1l0,0l0.1,0.3l0,0.1l0,0.1l0,0.2l0,0.1l0,0.1l0,0.1   l0,0.2l0,0.1l0,0.1l0,0.1l0,0.1l0,0.1l0,0.1l0,0.1l0,0.2l0,0.1l0,0.1l0,0.1l0,0l0,0l0,0l0,0l0,0l0,0l0,0l0,0l0,0.2l0,0l0,0l0,0l0,0   l0,0.1l0,0l0,0l0,0l0,0l0,0l0,0l0,0l0,0l0,0l0,0.3l0,0l0,0l0,0l0,0l0,0l0,0l0,0l0,0l0,0.2l0,0l0,0l0,0l0,0l0,0l0,0l0,0l0,0l0,0l0,0   l0,0l0,0l0,0l0,0l0,0l0,0l0,0l0,0l0,0l0,0l0,0l0,0l0,0l0,0l0,0l0,0l0,0l0,0l0,0l0,0l0,0l0,0l0,0l0,0l0,0l0,0l0,0l0,0l0,0l0,0l0,0   l0,0.2l0,0l0,0l0,0l0,0l0,0l0,0l0,0l0,0l0,0L91.7,68.6L91.7,68.6L91.7,68.6L91.7,68.6L91.7,68.6L91.7,68.6L91.7,68.6L91.7,68.6z    M93.9,34.7c-5.7-5.7-13.5-9.2-22.2-9.2c-5.8,0-11.2,1.6-15.9,4.3c-3.1,1.8-5.8,4.1-8.1,6.8c1.7-0.4,3.5-0.7,5.3-0.9   c2.4-2.1,5.3-3.9,8.4-5.1c3.2-1.2,6.7-1.9,10.3-1.9c7.8,0,14.9,3.2,20,8.3c5.1,5.1,8.3,12.2,8.3,20c0,4-0.9,7.9-2.4,11.4l0,0l0,0   c-1.5,3.4-3.6,6.4-6.3,9c-0.3,1.8-0.8,3.5-1.4,5.2c3.2-2.3,6-5.2,8.2-8.6c3.1-4.9,5-10.7,5-17C103.1,48.3,99.5,40.4,93.9,34.7z    M71.6,21.5c9.8,0,18.7,4,25.1,10.4c6.4,6.4,10.4,15.3,10.4,25.1c0,7-2.1,13.6-5.6,19.1c-3.5,5.5-8.6,10-14.5,12.8   c-1.5,2.6-3.4,5-5.5,7.2c-6.4,6.4-15.3,10.4-25.1,10.4c-9.8,0-18.7-4-25.1-10.4C24.9,89.7,20.9,80.8,20.9,71   c0-9.8,4-18.7,10.4-25.1c2.8-2.8,6.1-5.2,9.8-6.9c3.1-5.2,7.5-9.6,12.7-12.7C59,23.3,65.1,21.5,71.6,21.5z M54.3,55.5   c-2.2,0.3-4.2,1.2-6,2.5c-2.4,1.8-3.6,4.1-3.6,6.8c0,1.2,0.2,2.2,0.7,3.1c0.5,0.9,1,1.6,1.7,2.1c0.6,0.5,1.5,1,2.6,1.4   c1.1,0.4,2.1,0.7,2.9,0.8c0.5,0.1,1,0.2,1.7,0.3v9.3c-1.2-0.2-2.5-0.5-3.9-0.9c-2.2-0.7-3.4-1-3.8-1c-1.6,0-2.3,0.9-2.3,2.8   c0,1,1.3,2,3.8,2.8c2,0.6,4.1,1,6.2,1.2v3.1c0,1.1,0.9,2,2,2c1.1,0,2-0.9,2-2v-3.1c2.6-0.3,4.9-1.1,6.6-2.4c2.3-1.7,3.4-4,3.4-7   c0-2.8-1-4.9-3-6.2c-1.8-1.2-4.1-2-7.1-2.5V60c1.2,0.1,2.4,0.4,3.5,0.7c1.7,0.6,2.8,0.8,3.2,0.8c1.5,0,2.3-0.8,2.3-2.5   c0-0.8-0.6-1.5-1.8-2.1c-1.9-0.9-4.3-1.4-7.1-1.6v-3.1c0-1.1-0.9-2-2-2c-1.1,0-2,0.9-2,2V55.5z" fill="#2B2D03" fill-rule="evenodd"/><path clip-rule="evenodd" d="M39.2,53.9c-4.4,4.4-7.1,10.4-7.1,17.1c0,6.7,2.7,12.8,7.1,17.1   c4.4,4.4,10.4,7.1,17.1,7.1c6.7,0,12.8-2.7,17.1-7.1c4.4-4.4,7.1-10.4,7.1-17.1c0-6.7-2.7-12.8-7.1-17.1   c-4.4-4.4-10.4-7.1-17.1-7.1C49.7,46.8,43.6,49.5,39.2,53.9z M58.4,60v8.6c3,0.5,5.3,1.3,7.1,2.5c2,1.3,3,3.4,3,6.2   c0,3-1.1,5.3-3.4,7c-1.8,1.3-4,2.1-6.6,2.4v3.1c0,1.1-0.9,2-2,2c-1.1,0-2-0.9-2-2v-3.1c-2.1-0.1-4.2-0.5-6.2-1.2   c-2.5-0.8-3.8-1.8-3.8-2.8c0-1.9,0.8-2.8,2.3-2.8c0.4,0,1.6,0.3,3.8,1c1.4,0.4,2.6,0.7,3.9,0.9v-9.3c-0.6-0.1-1.2-0.2-1.7-0.3   c-0.8-0.2-1.8-0.4-2.9-0.8c-1.1-0.4-2-0.9-2.6-1.4c-0.6-0.5-1.2-1.2-1.7-2.1C45,67,44.7,66,44.7,64.8c0-2.7,1.2-5,3.6-6.8   c1.8-1.4,3.8-2.2,6-2.5v-3.2c0-1.1,0.9-2,2-2c1.1,0,2,0.9,2,2v3.1c2.8,0.1,5.2,0.7,7.1,1.6c1.2,0.6,1.8,1.3,1.8,2.1   c0,1.7-0.8,2.5-2.3,2.5c-0.4,0-1.4-0.3-3.2-0.8C60.7,60.3,59.6,60.1,58.4,60z" fill="#FFE64C" fill-rule="evenodd"/><path clip-rule="evenodd" d="M54.3,67.9v-7.8c-0.9,0.2-1.8,0.6-2.5,1.1c-1.3,0.9-1.9,2-1.9,3.4   c0,0.7,0.1,1.2,0.4,1.6c0.3,0.4,0.8,0.8,1.6,1c0.8,0.3,1.4,0.4,1.9,0.5L54.3,67.9z" fill="#FFE64C" fill-rule="evenodd"/><path clip-rule="evenodd" d="M61.5,74.3c-0.7-0.4-1.8-0.8-3.1-1.1v8.6c1.1-0.2,2.1-0.5,2.9-1.1   c1.3-0.8,1.9-1.9,1.9-3.4C63.2,76,62.7,74.9,61.5,74.3z" fill="#FFE64C" fill-rule="evenodd"/><path clip-rule="evenodd" d="M78.6,48.8c-5.7-5.7-13.5-9.2-22.2-9.2l-0.4,0h0l0,0l-1.2,0l0,0   c-8,0.4-15.3,3.8-20.6,9.2c-5.7,5.7-9.2,13.5-9.2,22.2c0,8.7,3.5,16.5,9.2,22.2c5.7,5.7,13.5,9.2,22.2,9.2c8.7,0,16.5-3.5,22.2-9.2   c5.6-5.6,9.1-13.3,9.2-21.8l0,0v0l0,0v0l0-0.4C87.8,62.4,84.3,54.5,78.6,48.8z M36.4,91c-5.1-5.1-8.3-12.2-8.3-20   c0-7.8,3.2-14.9,8.3-20c5.1-5.1,12.2-8.3,20-8.3c7.8,0,14.9,3.2,20,8.3c5.1,5.1,8.3,12.2,8.3,20c0,7.8-3.2,14.9-8.3,20   c-5.1,5.1-12.2,8.3-20,8.3C48.6,99.3,41.5,96.1,36.4,91z" fill="#FFE64C" fill-rule="evenodd"/><path clip-rule="evenodd" d="M87.5,54l0.2,0.3l0.1,0.1l0,0l0.1,0.2l0.1,0.1L88,55l0,0l0.1,0.1   l0,0l0.1,0.2l0,0l0.1,0.2l0.1,0.2l0.1,0.1l0.1,0.3l0,0l0,0.1l0,0l0.1,0.3l0,0.1l0.1,0.3l0,0l0,0.1l0.1,0.3l0,0l0,0.1l0,0l0.1,0.2   l0,0l0,0.1l0.1,0.3l0,0l0,0l0,0l0,0l0,0l0,0l0,0l0,0l0,0l0,0l0,0l0,0l0,0l0,0l0,0l0,0l0,0.1l0,0l0,0l0,0l0,0l0,0l0,0l0,0l0,0l0,0   l0,0l0,0l0,0l0,0l0,0l0,0l0,0l0.1,0.1l0,0l0,0l0,0l0,0l0.1,0.1l0,0l0,0l0,0l0,0l0,0l0,0l0,0l0,0l0,0l0,0.1l0.1,0.3l0,0l0.1,0.4l0,0   l0,0.1l0.1,0.2l0,0.1l0,0.1l0,0.1l0,0.2l0,0.1l0,0.1l0,0.1l0,0.1l0,0l0,0.2l0,0.1l0,0.1l0,0.1l0,0.2l0,0.1l0,0.1l0,0.1l0,0.1l0,0.1   l0,0.1l0,0.1l0,0.2l0,0.1l0,0.1l0,0.1l0,0.2l0,0.1l0,0.1l0,0l0,0.1l0,0.1l0,0.1l0,0.1l0,0l0.1,0.3l0,0.1l0,0.1l0,0.2l0,0.1l0,0.1   l0,0.1l0,0.2l0,0.1l0,0.1l0,0.1l0,0.1l0,0.1l0,0.1l0,0.1l0,0.2l0,0.1l0,0.1l0,0.1l0,0l0,0l0,0l0,0l0,0l0,0l0,0l0,0l0,0.2l0,0l0,0   l0,0l0,0l0,0.1l0,0l0,0l0,0l0,0l0,0l0,0l0,0l0,0l0,0l0,0.3l0,0l0,0l0,0l0,0l0,0l0,0l0,0l0,0l0,0.2l0,0l0,0l0,0l0,0l0,0l0,0l0,0l0,0   l0,0l0,0l0,0l0,0l0,0l0,0l0,0l0,0l0,0l0,0l0,0l0,0l0,0l0,0l0,0l0,0l0,0l0,0l0,0l0,0l0,0l0,0l0,0l0,0l0,0l0,0l0,0l0,0l0,0l0,0l0,0   l0,0l0,0l0,0.2l0,0l0,0l0,0l0,0l0,0l0,0l0,0l0,0l0,0l0,0l0,0l0,0l0,0l0,0l0,0l0,0l0,0l0,0.4l0,0l0,0.1l0,0.4l0,0l0,0.1l0,0l0,0.4   l0,0l0,0.4l0,0c0.8-1.2,1.5-2.4,2-3.7c1.3-3,2-6.3,2-9.7c0-6.7-2.7-12.8-7.1-17.1c-4.4-4.4-10.4-7.1-17.1-7.1   c-3.1,0-6.1,0.6-8.8,1.7c-1,0.4-2,0.8-2.9,1.4l0.3,0l0.1,0l0.3,0l0,0l0.1,0l0.3,0l0,0l0.1,0l0,0l0.3,0l0.1,0l0.3,0l0,0l0.1,0l0.3,0   l0.1,0l0,0l0,0l0,0l0,0l0,0l0,0l0,0l0,0l0,0l0,0l0,0l0,0l0,0l0,0l0,0l0,0l0,0l0,0l0,0l0,0l0,0l0.1,0l0,0l0,0l0,0l0,0l0,0l0,0l0,0   l0,0l0,0l0,0l0,0l0,0l0,0l0,0l0,0l0,0l0,0l0,0l0,0l0,0l0,0l0,0l0,0l0,0l0,0l0,0l0.1,0l0.3,0.1l0,0l0.1,0l0.3,0.1l0,0l0.1,0l0.2,0.1   l0,0l0.1,0l0,0l0.3,0.1l0.1,0l0.3,0.1l0.1,0l0,0l0,0l0,0l0,0l0,0l0,0l0,0l0,0l0.2,0.1l0,0l0,0l0,0l0,0l0,0l0,0l0,0l0,0l0.2,0.1l0,0   l0,0l0,0l0,0l0,0l0,0l0,0l0,0l0,0l0,0l0,0l0.2,0.1l0,0l0,0l0,0l0,0l0,0l0.1,0l0.2,0.1l0,0l0.2,0.1l0,0l0.2,0.1l0.1,0l0.2,0.1l0,0   l0.2,0.1l0.2,0.1l0.2,0.1l0,0l0.2,0.1l0,0l0,0l0,0l0,0l0,0l0,0l0,0l0,0l0,0l0,0l0,0l0,0l0,0l0,0l0,0l0,0l0.2,0.1l0,0l0,0l0,0l0,0   l0,0l0,0l0,0l0,0l0,0l0,0l0,0l0,0l0,0l0,0l0.2,0.1l0,0l0,0l0,0l0,0l0,0l0,0l0,0l0.2,0.1l0.2,0.1l0,0l0.2,0.1l0.2,0.1l0,0l0.2,0.1   l0,0l0.2,0.1l0.2,0.1l0,0l0.2,0.1l0,0l0.1,0.1l0,0l0.2,0.1l0,0l0.3,0.2l0.3,0.2l0.2,0.1l0.2,0.1l0.2,0.1l0.2,0.1l0.2,0.1l0.1,0.1   l0.2,0.1l0,0l0.1,0.1l0,0l0.2,0.1l0.2,0.1l0.1,0.1l0.2,0.1l0,0l0.2,0.1l0.3,0.2l0,0l0.1,0.1l0.2,0.1l0,0l0.1,0.1l0,0l0.2,0.1   l0.2,0.1l0,0l0.2,0.1l0,0l0.2,0.1l0,0l0.2,0.1l0.2,0.1l0.2,0.1l0.1,0.1l0,0l0.3,0.2l0.1,0l0,0l0,0l0,0l0,0l0.3,0.2l0,0l0,0l0,0l0,0   l0,0l0.3,0.2l0,0l0.1,0.1l0.2,0.2l0.1,0.1l0.2,0.2l0,0l0.1,0l0.2,0.2l0.1,0.1l0,0l0.2,0.2l0.1,0l0,0l0.2,0.2l0.1,0.1l0,0l0.3,0.2   l0,0l0,0l0,0l0,0l0,0l0,0l0,0l0.2,0.2l0,0l0,0l0,0l0,0l0,0l0,0l0,0l0,0l0,0l0.2,0.2l0.1,0.1l0,0l0.2,0.2l0,0l0.1,0.1l0.2,0.2   l0.1,0.1l0.2,0.2l0.1,0.1l0.2,0.2l0,0l0,0l0,0l0,0l0,0l0,0l0,0l0,0l0,0l0,0l0.2,0.2l0,0l0,0l0,0l0,0l0,0l0,0l0,0l0.3,0.3l0,0   l0.3,0.3l0,0l0.3,0.3l0,0l0.1,0.1l0.2,0.2l0,0l0.3,0.3l0,0l0.2,0.2l0,0l0.1,0.1l0.1,0.2l0,0l0.1,0.1l0.1,0.2l0,0l0.1,0.1l0,0   l0.1,0.1l0,0l0.2,0.2l0.1,0.1l0,0l0.1,0.2l0.1,0.2l0.1,0.2l0.1,0.1l0,0l0.2,0.2l0,0l0.1,0.1l0.2,0.2l0,0l0.1,0.2l0.1,0.2l0.1,0.2   l0.1,0.2l0.1,0.2l0.1,0.2l0.1,0.2l0,0l0.1,0.2l0.1,0.2l0,0l0.1,0.2l0.1,0.2l0.1,0.1l0.1,0.2l0,0l0.1,0.1l0,0l0.1,0.2l0.1,0.2   l0.1,0.2l0.1,0.1l0.1,0.2l0.1,0.1L87.5,54L87.5,54z" fill="#EAB43B" fill-rule="evenodd"/><path clip-rule="evenodd" d="M99.9,57c0,4-0.9,7.9-2.4,11.4v0c-1.5,3.4-3.6,6.4-6.3,9   c-0.3,1.8-0.8,3.5-1.4,5.2c3.2-2.3,6-5.2,8.2-8.6c3.1-4.9,5-10.7,5-17c0-8.7-3.5-16.5-9.2-22.2c-5.7-5.7-13.5-9.2-22.2-9.2   c-5.8,0-11.2,1.6-15.9,4.3c-3.1,1.8-5.8,4.1-8.1,6.8c1.7-0.4,3.5-0.7,5.3-0.9c2.4-2.1,5.3-3.9,8.4-5.1c3.2-1.2,6.7-1.9,10.3-1.9   c7.8,0,14.9,3.2,20,8.3C96.7,42.1,99.9,49.2,99.9,57z" fill="#EAB43B" fill-rule="evenodd"/></g></svg>