<?xml version="1.0" standalone="no"?><!DOCTYPE svg PUBLIC "-//W3C//DTD SVG 1.1//EN" "http://www.w3.org/Graphics/SVG/1.1/DTD/svg11.dtd"><svg t="1704586058878" class="icon" viewBox="0 0 1024 1024" version="1.1" xmlns="http://www.w3.org/2000/svg" p-id="9021" xmlns:xlink="http://www.w3.org/1999/xlink" width="128" height="128"><path d="M320 544z m505.6-236.8c0-19.2 12.8-32 32-32s32 12.8 32 32v544c0 25.6-12.8 51.2-32 70.4-19.2 19.2-44.8 25.6-70.4 25.6h-544c-25.6 0-51.2-12.8-70.4-32-19.2-19.2-32-44.8-32-70.4V307.2c0-19.2 12.8-32 32-32s32 12.8 32 32v544c0 12.8 6.4 19.2 12.8 32 0 6.4 12.8 12.8 25.6 12.8h544c12.8 0 19.2-6.4 25.6-12.8 6.4-6.4 12.8-19.2 12.8-32v-544zM480 332.8v454.4c0 19.2 12.8 32 32 32s32-12.8 32-32V332.8c0-19.2-12.8-32-32-32s-32 12.8-32 32z m-160 0v454.4c0 19.2 12.8 32 32 32s32-12.8 32-32V332.8c0-19.2-12.8-32-32-32s-32 12.8-32 32z m326.4 0v454.4c0 19.2 12.8 32 32 32s32-12.8 32-32V332.8c0-19.2-12.8-32-32-32s-32 12.8-32 32zM96 211.2c-19.2 0-32-12.8-32-32s12.8-32 32-32h243.2l70.4-70.4c6.4-6.4 12.8-6.4 19.2-6.4h166.4c6.4 0 19.2 6.4 25.6 12.8l64 64H928c19.2 0 32 12.8 32 32s-12.8 32-32 32H672c-6.4 0-12.8 0-19.2-6.4l-70.4-70.4H441.6l-64 64c-6.4 6.4-19.2 12.8-25.6 12.8H96z" fill="#ffffff" p-id="9022"></path></svg>