<?xml version="1.0" standalone="no"?><!DOCTYPE svg PUBLIC "-//W3C//DTD SVG 1.1//EN" "http://www.w3.org/Graphics/SVG/1.1/DTD/svg11.dtd"><svg t="1713686360802" class="icon" viewBox="0 0 1024 1024" version="1.1" xmlns="http://www.w3.org/2000/svg" p-id="87377" xmlns:xlink="http://www.w3.org/1999/xlink" width="128" height="128"><path d="M512 85.333333C277.333333 85.333333 85.333333 277.333333 85.333333 512s192 426.666667 426.666667 426.666667 426.666667-192 426.666667-426.666667S750.933333 85.333333 512 85.333333z m0 789.333334c-200.533333 0-362.666667-162.133333-362.666667-362.666667S311.466667 149.333333 512 149.333333s362.666667 162.133333 362.666667 362.666667-162.133333 362.666667-362.666667 362.666667z" p-id="87378" fill="#2c2c2c"></path><path d="M563.2 512l153.6-153.6c12.8-12.8 12.8-34.133333 0-46.933333s-34.133333-12.8-46.933333 0l-153.6 153.6-149.333334-149.333334c-12.8-12.8-34.133333-12.8-46.933333 0s-12.8 34.133333 0 46.933334L469.333333 512l-153.6 153.6c-12.8 12.8-12.8 34.133333 0 46.933333 4.266667 4.266667 12.8 8.533333 21.333334 8.533334s17.066667-4.266667 21.333333-8.533334l153.6-153.6 153.6 153.6c4.266667 4.266667 12.8 8.533333 21.333333 8.533334s17.066667-4.266667 21.333334-8.533334c12.8-12.8 12.8-34.133333 0-46.933333L563.2 512z" p-id="87379" fill="#2c2c2c"></path></svg>