<?xml version="1.0" standalone="no"?><!DOCTYPE svg PUBLIC "-//W3C//DTD SVG 1.1//EN" "http://www.w3.org/Graphics/SVG/1.1/DTD/svg11.dtd"><svg t="1716721340067" class="icon" viewBox="0 0 1024 1024" version="1.1" xmlns="http://www.w3.org/2000/svg" p-id="148616" xmlns:xlink="http://www.w3.org/1999/xlink" width="32" height="32"><path d="M838.4 246.4l-105.6-105.6c-51.2-51.2-134.4-51.2-185.6 0L182.4 508.8c-19.2 19.2-28.8 41.6-28.8 67.2v166.4c0 51.2 32 83.2 83.2 83.2h169.6c25.6 0 51.2-9.6 67.2-28.8l361.6-364.8c25.6-25.6 38.4-57.6 38.4-92.8 3.2-32-9.6-67.2-35.2-92.8zM236.8 761.6c-16 0-19.2-3.2-19.2-19.2V608l153.6 153.6H236.8z m204.8-22.4l-198.4-198.4 252.8-256 198.4 198.4-252.8 256z m352-352l-51.2 51.2L544 240l51.2-51.2c12.8-12.8 32-19.2 48-19.2s35.2 6.4 48 19.2l105.6 105.6c12.8 12.8 19.2 28.8 19.2 48-3.2 16-9.6 32-22.4 44.8zM745.6 873.6H185.6c-19.2 0-32 12.8-32 32s12.8 32 32 32h556.8c19.2 0 32-12.8 32-32s-12.8-32-28.8-32z" p-id="148617" fill="#ffffff"></path></svg>