<?xml version="1.0" standalone="no"?><!DOCTYPE svg PUBLIC "-//W3C//DTD SVG 1.1//EN" "http://www.w3.org/Graphics/SVG/1.1/DTD/svg11.dtd"><svg t="1704276955227" class="icon" viewBox="0 0 1024 1024" version="1.1" xmlns="http://www.w3.org/2000/svg" p-id="5090" xmlns:xlink="http://www.w3.org/1999/xlink" width="128" height="128"><path d="M117.316267 630.408533a167.458133 167.458133 0 1 1 236.817066-236.817066l94.276267 94.276266a34.133333 34.133333 0 0 1 0 48.264534l-94.276267 94.276266a167.458133 167.458133 0 0 1-236.817066 0z m789.367466-236.817066a167.458133 167.458133 0 0 0-236.817066 0l-94.276267 94.276266a34.133333 34.133333 0 0 0 0 48.264534l94.276267 94.276266a167.458133 167.458133 0 0 0 236.817066-236.817066z" fill="#FFAA44" p-id="5091"></path><path d="M630.408533 117.316267a167.458133 167.458133 0 0 0-236.817066 236.817066l94.276266 94.276267a34.133333 34.133333 0 0 0 48.264534 0l94.276266-94.276267a167.458133 167.458133 0 0 0 0-236.817066zM393.557333 906.683733a167.458133 167.458133 0 0 1 0-236.817066l94.276267-94.242134a34.133333 34.133333 0 0 1 48.264533 0l94.276267 94.242134a167.458133 167.458133 0 0 1-236.817067 236.817066z" fill="#FF7744" p-id="5092"></path></svg>