<?xml version="1.0" ?><!DOCTYPE svg  PUBLIC '-//W3C//DTD SVG 1.1//EN'  'http://www.w3.org/Graphics/SVG/1.1/DTD/svg11.dtd'><svg enable-background="new 0 0 136.367 135.463" height="135.463px" id="Layer_1" version="1.1" viewBox="0 0 136.367 135.463" width="136.367px" xml:space="preserve" xmlns="http://www.w3.org/2000/svg" xmlns:xlink="http://www.w3.org/1999/xlink"><g><g><g><g><circle cx="68.184" cy="67.731" fill="#F04E23" r="63.333"/></g></g></g><path d="M112.967,22.946c24.732,24.734,24.734,64.834,0,89.568c-24.732,24.732-64.835,24.733-89.568,0   L112.967,22.946z" fill="#E74525"/><g><path d="M129.158,84.845l-20.18-20.179l-0.281,0.281L81.104,37.354l-7.76,7.759l-9.993,0.673l-0.089,9.409    L52.146,66.31l10.813,10.813l-3.605,3.606l-16-16l-9.082,9.081l7.125,7.125l-6.75,6.75l42.711,42.711    C102.283,126.777,122.49,108.646,129.158,84.845z" fill="#DD4127"/><g><path d="M129.163,84.826l-20.192-20.191L90.805,82.802l-3.125-3.125l-8.729,8.73l28.777,28.778     C117.932,109.016,125.545,97.759,129.163,84.826z" fill="#D33D28"/></g></g></g><g><path d="M73.577,55.563l5.397,2.514l8.045-2.401v-5.584c-0.284-9.501-8.051-17.124-17.623-17.124   c-9.537,0-17.284,7.566-17.623,17.021v25.507c0,2.31-1.873,4.181-4.182,4.181s-4.18-1.871-4.18-4.181v-10.81H29.896   c0,0,0,10.828,0,10.954c0,9.754,7.906,17.66,17.66,17.66c9.668,0,17.504-7.771,17.64-17.405l0.02-25.194   c0-2.309,1.872-4.181,4.181-4.181s4.181,1.872,4.181,4.181V55.563z M95.381,64.686V76c0,2.309-1.871,4.181-4.18,4.181   S87.02,78.309,87.02,76V64.902l-8.045,2.401l-5.397-2.515v11.009c0.085,9.679,7.96,17.502,17.659,17.502   c9.754,0,17.66-7.906,17.66-17.66c0-0.126,0-10.954,0-10.954H95.381z" fill="#FFFFFF" id="icon"/></g></svg>