<?xml version="1.0" standalone="no"?><!DOCTYPE svg PUBLIC "-//W3C//DTD SVG 1.1//EN" "http://www.w3.org/Graphics/SVG/1.1/DTD/svg11.dtd"><svg t="1704195587502" class="icon" viewBox="0 0 1024 1024" version="1.1" xmlns="http://www.w3.org/2000/svg" p-id="61553" xmlns:xlink="http://www.w3.org/1999/xlink" width="128" height="128"><path d="M512 1024C229.2352 1024 0 794.7648 0 512S229.2352 0 512 0s512 229.2352 512 512-229.2352 512-512 512zM320 268.8a76.8 76.8 0 0 0-76.8 76.8v96.5888a76.8 76.8 0 0 0 76.8 76.8h95.68a76.8 76.8 0 0 0 76.8-76.8V345.6a76.8 76.8 0 0 0-76.8-76.8H320z m280.448 0a76.8 76.8 0 0 0-76.8 76.8v96.5888a76.8 76.8 0 0 0 76.8 76.8h95.68a76.8 76.8 0 0 0 76.8-76.8V345.6a76.8 76.8 0 0 0-76.8-76.8H600.448zM320 550.2592a76.8 76.8 0 0 0-76.8 76.8v96.5888a76.8 76.8 0 0 0 76.8 76.8h95.68a76.8 76.8 0 0 0 76.8-76.8v-96.5888a76.8 76.8 0 0 0-76.8-76.8H320z m328.2816 0c-68.8384 0-124.6336 55.808-124.6336 124.6464v0.896c0 68.8384 55.808 124.6464 124.6336 124.6464 68.8384 0 124.6464-55.808 124.6464-124.6464v-0.896c0-68.8384-55.808-124.6464-124.6464-124.6464z" fill="#000000" p-id="61554"></path></svg>