<?xml version="1.0" ?><svg xmlns="http://www.w3.org/2000/svg" xmlns:xlink="http://www.w3.org/1999/xlink" version="1.1" viewBox="0 0 32 32" style="enable-background:new 0 0 32 32;" xml:space="preserve"><style type="text/css">
	.st0{display:none;}
	.st1{display:inline;}
	.st2{fill:#CDF6F9;}
	.st3{fill:#FFFFFF;}
	.st4{fill:#1A83A8;}
</style><g id="Layer_1" class="st0"/><g id="Layer_2"/><g id="Layer_3"/><g id="Layer_4"/><g id="Layer_5"/><g id="Layer_6"/><g id="Layer_7"/><g id="Layer_8"/><g id="Layer_9"/><g id="Layer_10"/><g id="Layer_11"/><g id="Layer_12"/><g id="Layer_13"/><g id="Layer_14"/><g id="Layer_15"/><g id="Layer_16"/><g id="Layer_17"/><g id="Layer_18"/><g id="Layer_19"/><g id="Layer_20"/><g id="Layer_21"/><g id="Layer_22"/><g id="Layer_23"/><g id="Layer_24"/><g id="Layer_25"/><g id="Layer_26"><path class="st2" d="M25.991,16c0-0.798-0.104-1.57-0.28-2.314l1.893-1.762c0.408-0.38,0.497-0.992,0.215-1.473l-1.221-2.078   c-0.282-0.481-0.861-0.7-1.391-0.529l-2.463,0.798c0,0,0,0,0,0c-1.083-0.993-2.378-1.756-3.819-2.196c0,0,0,0,0,0   c0,0-0.332-1.495-0.558-2.516C18.245,3.386,17.763,3,17.205,3h-2.41c-0.557,0-1.04,0.387-1.161,0.932l-0.558,2.515c0,0,0,0,0,0   c-1.441,0.44-2.736,1.204-3.819,2.196c0,0,0,0,0,0c0,0-1.466-0.475-2.464-0.798c-0.53-0.172-1.108,0.048-1.39,0.529l-1.221,2.078   c-0.282,0.481-0.193,1.093,0.215,1.473l1.893,1.762C6.113,14.43,6.009,15.202,6.009,16s0.104,1.57,0.28,2.314l-1.893,1.762   c-0.408,0.38-0.497,0.992-0.215,1.473l1.221,2.078c0.282,0.481,0.861,0.7,1.391,0.529l2.463-0.798c0,0,0,0,0,0   c1.083,0.993,2.378,1.756,3.819,2.196c0,0,0,0,0,0c0,0,0.332,1.495,0.558,2.516c0.121,0.544,0.603,0.93,1.161,0.93h2.41   c0.557,0,1.04-0.387,1.161-0.932l0.558-2.515c0,0,0,0,0,0c1.441-0.44,2.736-1.204,3.819-2.196c0,0,0,0,0,0   c0,0,1.466,0.475,2.464,0.798c0.53,0.172,1.108-0.048,1.39-0.529l1.221-2.078c0.283-0.481,0.193-1.093-0.215-1.473l-1.893-1.762   C25.887,17.57,25.991,16.798,25.991,16z"/><g><circle class="st3" cx="16" cy="16" r="4.5"/></g><path class="st4" d="M16.871,14.606l-1.352,1.089l-0.247-0.314c-0.305-0.391-0.872-0.463-1.263-0.153   c-0.392,0.306-0.46,0.872-0.153,1.263l0.81,1.033c0.148,0.19,0.366,0.313,0.605,0.34c0.034,0.004,0.068,0.006,0.103,0.006   c0.204,0,0.404-0.07,0.564-0.199L18,16.009c0.388-0.313,0.448-0.879,0.137-1.266S17.259,14.295,16.871,14.606z"/><path class="st4" d="M16,10.6c-1.442,0-2.799,0.563-3.817,1.582C11.162,13.201,10.6,14.558,10.6,16s0.563,2.799,1.582,3.817   C13.201,20.838,14.558,21.4,16,21.4s2.798-0.563,3.817-1.582c0.001,0,0.001,0,0.001,0s0,0,0-0.001   c1.02-1.02,1.582-2.375,1.582-3.817s-0.563-2.799-1.582-3.817C18.799,11.162,17.442,10.6,16,10.6z M18.546,18.545   C18.545,18.545,18.545,18.545,18.546,18.545c-1.36,1.36-3.73,1.361-5.092,0C12.774,17.865,12.4,16.962,12.4,16   s0.374-1.865,1.055-2.546c0.68-0.68,1.583-1.054,2.545-1.054s1.865,0.374,2.546,1.055c0.68,0.68,1.054,1.583,1.054,2.545   S19.226,17.865,18.546,18.545z"/><path class="st4" d="M28.217,19.417l-1.52-1.413c0.129-0.676,0.194-1.348,0.194-2.004s-0.065-1.328-0.194-2.004l1.521-1.414   c0.721-0.673,0.876-1.736,0.376-2.587l-1.221-2.076c-0.493-0.84-1.523-1.229-2.445-0.931L22.95,7.629   c-0.982-0.819-2.074-1.448-3.259-1.875c-0.055-0.246-0.124-0.562-0.198-0.895l-0.249-1.122C19.031,2.773,18.193,2.1,17.205,2.1   h-2.41c-0.986,0-1.825,0.673-2.04,1.637l-0.447,2.018C11.124,6.181,10.031,6.81,9.05,7.629L7.071,6.988   c-0.94-0.303-1.945,0.079-2.443,0.93L3.405,9.995c-0.499,0.851-0.344,1.914,0.378,2.588l1.52,1.413   C5.174,14.672,5.108,15.344,5.108,16s0.065,1.328,0.194,2.004l-1.521,1.414c-0.721,0.673-0.876,1.736-0.376,2.587l1.221,2.076   c0.492,0.84,1.522,1.228,2.445,0.931l1.978-0.641c0.982,0.819,2.074,1.448,3.259,1.875c0.055,0.246,0.124,0.562,0.198,0.895   l0.249,1.122c0.213,0.964,1.051,1.638,2.039,1.638h2.41c0.986,0,1.825-0.673,2.04-1.637l0.447-2.018   c1.184-0.427,2.276-1.056,3.258-1.875l1.979,0.641c0.939,0.302,1.944-0.079,2.443-0.93l1.223-2.077   C29.094,21.154,28.938,20.091,28.217,19.417z M27.043,21.093l-1.223,2.078c-0.068,0.118-0.212,0.171-0.337,0.128l-2.464-0.798   c-0.309-0.1-0.646-0.025-0.886,0.193c-1.017,0.933-2.186,1.605-3.473,1.999c-0.311,0.095-0.546,0.349-0.616,0.665l-0.558,2.515   c-0.029,0.132-0.147,0.227-0.282,0.227h-2.41c-0.137,0-0.252-0.092-0.281-0.226l-0.25-1.123c-0.407-1.837-0.459-2.07-1.042-2.095   c-1.241-0.398-2.369-1.058-3.355-1.962c-0.239-0.219-0.576-0.292-0.886-0.193l-2.463,0.798c-0.129,0.044-0.27-0.013-0.339-0.129   l-1.221-2.077c-0.068-0.115-0.046-0.267,0.052-0.357l1.894-1.762c0.237-0.221,0.338-0.553,0.262-0.868   C6.995,17.393,6.909,16.684,6.909,16s0.086-1.393,0.256-2.105c0.076-0.315-0.024-0.647-0.262-0.868l-1.893-1.761   c-0.099-0.092-0.121-0.243-0.054-0.358L6.18,8.829c0.068-0.118,0.21-0.171,0.337-0.128L8.98,9.499   c0.309,0.1,0.646,0.025,0.886-0.193c1.017-0.933,2.186-1.605,3.473-1.999c0.311-0.095,0.546-0.349,0.616-0.665l0.558-2.515   C14.542,3.995,14.66,3.9,14.795,3.9h2.41c0.137,0,0.252,0.092,0.281,0.226l0.25,1.123c0.407,1.837,0.459,2.07,1.042,2.095   c1.241,0.398,2.369,1.058,3.355,1.962c0.24,0.219,0.578,0.294,0.886,0.193l2.463-0.798c0.131-0.042,0.27,0.013,0.339,0.129   l1.221,2.077c0.068,0.115,0.046,0.267-0.052,0.357l-1.894,1.762c-0.237,0.221-0.338,0.553-0.262,0.868   c0.17,0.713,0.256,1.422,0.256,2.105s-0.086,1.393-0.256,2.105c-0.076,0.315,0.024,0.647,0.262,0.868l1.893,1.761   C27.088,20.826,27.11,20.978,27.043,21.093z"/></g></svg>