<?xml version="1.0" standalone="no"?><!DOCTYPE svg PUBLIC "-//W3C//DTD SVG 1.1//EN" "http://www.w3.org/Graphics/SVG/1.1/DTD/svg11.dtd"><svg t="1704256335410" class="icon" viewBox="0 0 1024 1024" version="1.1" xmlns="http://www.w3.org/2000/svg" p-id="8815" xmlns:xlink="http://www.w3.org/1999/xlink" width="128" height="128"><path d="M514 114.3c-219.9 0-398.8 178.9-398.8 398.9C115.2 733.1 294.1 912 514 912s398.8-178.9 398.8-398.8S733.9 114.3 514 114.3z m0 701.6c-166.9 0-302.7-135.8-302.7-302.7S347.1 210.5 514 210.5s302.7 135.8 302.7 302.7S680.9 815.9 514 815.9z" fill="#0C0C0C" p-id="8816"></path><path d="M658.2 304.1H511.7c-32.5 0-58.8 26.3-58.8 58.8s26.3 58.8 58.8 58.8h146.5c32.5 0 58.8-26.3 58.8-58.8-0.1-32.5-26.4-58.8-58.8-58.8zM658.2 455.3H511.7c-32.5 0-58.8 26.3-58.8 58.8s26.3 58.8 58.8 58.8h146.5c32.5 0 58.8-26.3 58.8-58.8-0.1-32.5-26.4-58.8-58.8-58.8zM658.2 606.6H511.7c-32.5 0-58.8 26.3-58.8 58.8s26.3 58.8 58.8 58.8h146.5c32.5 0 58.8-26.3 58.8-58.8-0.1-32.5-26.4-58.8-58.8-58.8zM369.3 304.1h-4.5c-32.5 0-58.8 26.3-58.8 58.8s26.3 58.8 58.8 58.8h4.5c32.5 0 58.8-26.3 58.8-58.8-0.1-32.5-26.4-58.8-58.8-58.8zM369.3 455.3h-4.5c-32.5 0-58.8 26.3-58.8 58.8s26.3 58.8 58.8 58.8h4.5c32.5 0 58.8-26.3 58.8-58.8-0.1-32.5-26.4-58.8-58.8-58.8zM369.3 606.6h-4.5c-32.5 0-58.8 26.3-58.8 58.8s26.3 58.8 58.8 58.8h4.5c32.5 0 58.8-26.3 58.8-58.8-0.1-32.5-26.4-58.8-58.8-58.8z" fill="#0C0C0C" p-id="8817"></path></svg>