<?xml version="1.0" standalone="no"?><!DOCTYPE svg PUBLIC "-//W3C//DTD SVG 1.1//EN" "http://www.w3.org/Graphics/SVG/1.1/DTD/svg11.dtd"><svg t="1716608251629" class="icon" viewBox="0 0 1024 1024" version="1.1" xmlns="http://www.w3.org/2000/svg" p-id="39499" xmlns:xlink="http://www.w3.org/1999/xlink" width="32" height="32"><path d="M512 74.656h-2.176c-88.384 0-157.664 0-212.192 6.624-55.712 6.784-100.32 20.864-136.96 52.16-9.76 8.352-18.88 17.44-27.232 27.232-31.296 36.64-45.376 81.248-52.16 136.96-6.624 54.528-6.624 123.808-6.624 212.192v4.384c0 88.384 0 157.664 6.624 212.192 6.784 55.712 20.864 100.32 52.16 136.96 8.352 9.76 17.44 18.88 27.232 27.232 36.64 31.296 81.248 45.376 136.96 52.16 54.528 6.624 123.808 6.624 212.192 6.624h4.384c88.384 0 157.664 0 212.192-6.624 55.712-6.784 100.32-20.864 136.96-52.16 9.76-8.352 18.88-17.44 27.232-27.232 31.296-36.64 45.376-81.248 52.16-136.96 6.624-54.528 6.624-123.808 6.624-212.192v-4.384c0-88.384 0-157.664-6.624-212.192-6.784-55.712-20.864-100.32-52.16-136.96a245.888 245.888 0 0 0-27.232-27.232c-36.64-31.296-81.248-45.376-136.96-52.16-54.528-6.624-123.808-6.624-212.192-6.624h-2.176zM202.24 182.112c23.2-19.808 53.632-31.296 103.104-37.28 50.208-6.112 115.616-6.144 206.656-6.144s156.416 0.064 206.656 6.144c49.472 6.016 79.904 17.472 103.136 37.28 7.232 6.176 13.952 12.896 20.128 20.128 19.808 23.2 31.296 53.632 37.28 103.104 6.112 50.208 6.144 115.616 6.144 206.656s-0.064 156.416-6.144 206.656c-6.016 49.472-17.472 79.904-37.28 103.136a181.12 181.12 0 0 1-20.128 20.128c-23.2 19.808-53.632 31.296-103.136 37.28-50.208 6.112-115.616 6.144-206.656 6.144s-156.416-0.064-206.656-6.144c-49.472-6.016-79.904-17.472-103.104-37.28a181.12 181.12 0 0 1-20.128-20.128c-19.808-23.2-31.296-53.632-37.28-103.136-6.112-50.208-6.144-115.616-6.144-206.656s0.064-156.416 6.144-206.656c6.016-49.472 17.472-79.904 37.28-103.104a181.12 181.12 0 0 1 20.128-20.128zM544 298.656a32 32 0 0 0-64 0v18.112c-26.24 4.48-50.336 14.368-69.888 28.704-27.264 19.968-47.456 50.24-47.456 86.656 0 32.032 11.488 61.632 40.864 81.28 26.624 17.824 63.776 24.48 108.48 24.48 40.896 0 65.184 6.144 78.592 14.816 10.496 6.816 17.408 17.088 17.408 39.2 0 18.592-7.648 30.08-21.888 38.592-16.192 9.664-41.632 15.456-74.112 15.456-29.856 0-55.456-8.192-72.672-19.744-17.408-11.712-23.328-24.416-23.328-34.272a32 32 0 0 0-64 0c0 37.664 22.72 67.968 51.648 87.392 21.344 14.368 47.712 24.128 76.352 28.32v17.696a32 32 0 0 0 64 0v-17.056c27.168-2.912 53.216-9.92 74.912-22.848C650.976 666.304 672 634.752 672 591.904c0-39.328-14.432-72.064-46.592-92.928-29.248-18.976-68.96-25.12-113.408-25.12-40.64 0-62.176-6.496-72.864-13.632-7.968-5.344-12.48-12.608-12.48-28.096 0-11.104 6.08-23.872 21.28-35.04s37.728-19.008 64.032-19.008 48.864 7.872 64.032 19.008c15.2 11.168 21.28 23.904 21.28 35.04a32 32 0 0 0 64 0c0-36.416-20.192-66.656-47.456-86.656a164.896 164.896 0 0 0-69.888-28.704v-18.112z" p-id="39500" fill="#2c2c2c"></path></svg>