<?xml version="1.0" standalone="no"?><!DOCTYPE svg PUBLIC "-//W3C//DTD SVG 1.1//EN" "http://www.w3.org/Graphics/SVG/1.1/DTD/svg11.dtd"><svg t="1713662562551" class="icon" viewBox="0 0 1025 1024" version="1.1" xmlns="http://www.w3.org/2000/svg" p-id="13559" xmlns:xlink="http://www.w3.org/1999/xlink" width="128.125" height="128"><path d="M511.903518 0c-282.696718 0-511.904518 229.170807-511.904518 511.902518 0 282.695718 229.2068 511.904518 511.904518 511.904518 282.695718 0 511.902518-229.2078 511.902518-511.904518 0-282.733711-229.2068-511.902518-511.902518-511.902518zM511.903518 987.241928c-262.52452 0-475.341409-212.815889-475.341409-475.33841s212.816889-475.341409 475.341409-475.341409c262.52352 0 475.340409 212.818889 475.340409 475.341409s-212.816889 475.33841-475.340409 475.33841z" p-id="13560" fill="#2c2c2c"></path><path d="M251.106672 400.874445l148.777959 0 0-148.777959-148.777959 0 0 148.777959z" p-id="13561" fill="#2c2c2c"></path><path d="M437.079621 400.874445l148.776959 0 0-148.777959-148.776959 0 0 148.777959z" p-id="13562" fill="#2c2c2c"></path><path d="M623.04857 252.098485l0 148.777959 148.777959 0 0-148.777959-148.777959 0z" p-id="13563" fill="#2c2c2c"></path><path d="M623.04857 586.843394l148.777959 0 0-148.776959-148.777959 0 0 148.776959z" p-id="13564" fill="#2c2c2c"></path><path d="M623.04857 772.814343l148.777959 0 0-148.777959-148.777959 0 0 148.777959z" p-id="13565" fill="#2c2c2c"></path><path d="M437.079621 772.814343l148.776959 0 0-148.777959-148.776959 0 0 148.777959z" p-id="13566" fill="#2c2c2c"></path><path d="M251.106672 772.814343l148.777959 0 0-148.777959-148.777959 0 0 148.777959z" p-id="13567" fill="#2c2c2c"></path><path d="M251.106672 586.843394l148.777959 0 0-148.776959-148.777959 0 0 148.776959z" p-id="13568" fill="#2c2c2c"></path><path d="M437.079621 586.843394l148.776959 0 0-148.776959-148.776959 0 0 148.776959z" p-id="13569" fill="#2c2c2c"></path></svg>