<?xml version="1.0" standalone="no"?><!DOCTYPE svg PUBLIC "-//W3C//DTD SVG 1.1//EN" "http://www.w3.org/Graphics/SVG/1.1/DTD/svg11.dtd"><svg t="1713398562411" class="icon" viewBox="0 0 1024 1024" version="1.1" xmlns="http://www.w3.org/2000/svg" p-id="10057" xmlns:xlink="http://www.w3.org/1999/xlink" width="128" height="128"><path d="M659.174 377.122L397.566 638.24a39.988 39.988 0 0 0-10.016 16.686l-47.824 157.45c-9.258 29.954 18.924 58.678 48.952 50.172l161.45-44.722a40.016 40.016 0 0 0 17.584-10.242l261.142-260.73c46.788-46.788 46.788-122.916 0-169.706-46.79-46.788-122.918-46.788-169.68-0.026z m-140.542 366.416l-81.222 22.5 23.772-78.262 190.19-189.834 56.578 56.578z m253.674-253.276l-7.744 7.732-56.568-56.568 7.724-7.708c15.594-15.596 40.972-15.596 56.566 0 15.596 15.594 15.596 40.97 0.022 56.544zM944 664V160c0-44.182-35.818-80-80-80H349.974c-21.172 0-41.87 8.62-56.784 23.648L98.722 300H260c22.092 0 40-17.908 40-40v-60c2.518-53.596 78.012-52.878 80 0.958V260c0 66.274-53.726 120-120 120H80v484c0 44.182 35.818 80 80 80h704c44.388 0 79.434-36.138 80.004-80.522 0.282-21.938 18.224-39.62 40.262-39.476 22.418 0.146 39.996 19.562 39.722 41.98C1022.924 953.296 951.564 1024 864 1024H160c-88.366 0-160-71.634-160-160V350.968a160 160 0 0 1 46.568-112.842l189.838-190.828C266.234 17.24 307.628 0 349.974 0H864c88.366 0 160 71.634 160 160v503.042c-2.008 53.878-77.504 54.512-80 0.958z" p-id="10058" fill="#2c2c2c"></path></svg>