<?xml version="1.0" standalone="no"?><!DOCTYPE svg PUBLIC "-//W3C//DTD SVG 1.1//EN" "http://www.w3.org/Graphics/SVG/1.1/DTD/svg11.dtd"><svg t="1713438983436" class="icon" viewBox="0 0 1024 1024" version="1.1" xmlns="http://www.w3.org/2000/svg" p-id="72949" xmlns:xlink="http://www.w3.org/1999/xlink" width="128" height="128"><path d="M853.2992 853.2992V227.5328H739.5328V256c0 15.6672-12.6976 28.4672-28.4672 28.4672-15.6672 0-28.4672-12.6976-28.4672-28.4672v-28.4672H341.2992V256c0 15.6672-12.6976 28.4672-28.4672 28.4672-15.6672 0-28.4672-12.6976-28.4672-28.4672v-28.4672h-113.664v625.7664h682.5984zM739.5328 170.7008h113.7664c31.4368 0 56.9344 25.3952 56.9344 56.9344v625.7664c0 31.4368-25.3952 56.9344-56.9344 56.9344H170.7008c-31.4368 0-56.9344-25.3952-56.9344-56.9344V227.5328c0-31.4368 25.3952-56.9344 56.9344-56.9344h113.7664v-28.4672c0-15.6672 12.6976-28.4672 28.4672-28.4672 15.6672 0 28.4672 12.6976 28.4672 28.4672v28.4672h341.2992v-28.4672c0-15.6672 12.6976-28.4672 28.4672-28.4672 15.6672 0 28.4672 12.6976 28.4672 28.4672l-0.1024 28.5696zM312.9344 625.7664c-15.6672 0-28.4672-12.6976-28.4672-28.4672 0-15.6672 12.6976-28.4672 28.4672-28.4672h398.2336c15.6672 0 28.4672 12.6976 28.4672 28.4672 0 15.6672-12.6976 28.4672-28.4672 28.4672H312.9344z m0-113.7664c-15.6672 0-28.4672-12.6976-28.4672-28.4672s12.6976-28.4672 28.4672-28.4672h398.2336c15.6672 0 28.4672 12.6976 28.4672 28.4672S726.8352 512 711.0656 512H312.9344z m0 227.5328c-15.6672 0-28.4672-12.6976-28.4672-28.4672 0-15.6672 12.6976-28.4672 28.4672-28.4672h170.7008c15.6672 0 28.4672 12.6976 28.4672 28.4672 0 15.6672-12.6976 28.4672-28.4672 28.4672H312.9344z" fill="#ffffff" p-id="72950"></path></svg>