<?xml version="1.0" standalone="no"?><!DOCTYPE svg PUBLIC "-//W3C//DTD SVG 1.1//EN" "http://www.w3.org/Graphics/SVG/1.1/DTD/svg11.dtd"><svg t="1714034182728" class="icon" viewBox="0 0 1024 1024" version="1.1" xmlns="http://www.w3.org/2000/svg" p-id="30100" xmlns:xlink="http://www.w3.org/1999/xlink" width="128" height="128"><path d="M602.7 869.3H210.9c-79.5 0-144.1-64.7-144.1-144.1 0-17.6 3.2-34.4 8.9-50 0.5-1.7 1.2-3.3 1.9-5 5.5-13.4 13-25.7 22.1-36.7l256.4-419.7c22.4-36.6 63-59.4 105.9-59.4h401.3c16.2 0 31.1 8.8 39 23 7.9 14.2 7.4 31.5-1.2 45.2L656.9 612.5c-22.6 36.1-61.5 57.6-104.1 57.6h-342c-15.3 0-29.1 6.3-39.1 16.4l-13.2 21.6c-1.8 5.4-2.7 11.1-2.7 17.1 0 30.3 24.7 55 55 55h391.8c11.7 0 22.4-5.9 28.5-15.8l244.2-389.9c13.1-20.9 40.6-27.2 61.4-14.1 20.9 13.1 27.2 40.6 14.1 61.4l-244 389.8c-22.6 36.1-61.5 57.7-104.1 57.7zM236.2 581h316.6c11.7 0 22.4-5.9 28.6-15.8l201.5-321.7H462.1c-12.1 0-23.6 6.4-29.9 16.8L236.2 581z" fill="#2c2c2c" p-id="30101"></path><path d="M633 370.9H478.6c-24.6 0-44.6-19.9-44.6-44.6 0-24.6 19.9-44.6 44.6-44.6H633c24.6 0 44.6 19.9 44.6 44.6-0.1 24.7-20 44.6-44.6 44.6zM555.8 495.6H401.5c-24.6 0-44.6-19.9-44.6-44.6 0-24.6 19.9-44.6 44.6-44.6h154.3c24.6 0 44.6 19.9 44.6 44.6 0 24.7-20 44.6-44.6 44.6z" fill="#2c2c2c" p-id="30102"></path></svg>