<?xml version="1.0" standalone="no"?><!DOCTYPE svg PUBLIC "-//W3C//DTD SVG 1.1//EN" "http://www.w3.org/Graphics/SVG/1.1/DTD/svg11.dtd"><svg t="1713354377724" class="icon" viewBox="0 0 1024 1024" version="1.1" xmlns="http://www.w3.org/2000/svg" p-id="14561" xmlns:xlink="http://www.w3.org/1999/xlink" width="128" height="128"><path d="M806.925117 0H217.074883c-85.438307 0-154.960655 69.51235-154.960654 154.960655V868.889384c0 85.448304 69.522348 154.960655 154.960654 154.960654h98.884893q1.559604 0.149962 3.1492 0.149962c1.069728 0 2.119462 0 3.159198-0.149962H806.925117c85.438307 0 154.960655-69.51235 154.960654-154.960654V154.960655c0-85.448304-69.522348-154.960655-154.960654-154.960655z m-260.833773 69.982231h185.952785v228.432l-77.300373-38.810146a34.991116 34.991116 0 0 0-31.352039 0l-77.35036 38.690176zM132.09646 868.889384V154.960655a85.078398 85.078398 0 0 1 84.978423-84.978424h67.042978V953.867807H217.074883a85.078398 85.078398 0 0 1-84.978423-84.978423z m759.80708 0a85.078398 85.078398 0 0 1-84.978423 84.978423H354.100092V69.982231h121.969031v284.927655a34.991116 34.991116 0 0 0 50.64714 31.302052L639.067737 330.026204l112.321481 56.385684a34.991116 34.991116 0 0 0 50.68713-31.27206V69.982231H806.925117a85.078398 85.078398 0 0 1 84.978423 84.978424z" fill="#ffffff" p-id="14562"></path></svg>