<?xml version="1.0" standalone="no"?><!DOCTYPE svg PUBLIC "-//W3C//DTD SVG 1.1//EN" "http://www.w3.org/Graphics/SVG/1.1/DTD/svg11.dtd"><svg t="1716796758131" class="icon" viewBox="0 0 1026 1024" version="1.1" xmlns="http://www.w3.org/2000/svg" p-id="87805" xmlns:xlink="http://www.w3.org/1999/xlink" width="32.0625" height="32"><path d="M716.543358 242.269674c66.726817 0 121.134837-54.40802 121.134837-121.134837S783.270175 0 716.543358 0 595.408521 54.40802 595.408521 121.134837s53.894737 121.134837 121.134837 121.134837z m0-199.153885c43.629073 0 78.019048 35.416541 78.019048 78.019048 0 43.629073-35.416541 78.019048-78.019048 78.019048-43.629073 0-78.019048-35.416541-78.019047-78.019048s34.389975-78.019048 78.019047-78.019048z m298.730827 888.493234l-202.746867-293.597995V496.858145l38.496241 38.496241c1.53985 1.53985 3.592982 3.079699 5.646115 4.106266l59.540852 29.770426c8.725815 4.106266 17.964912 6.672682 27.20401 6.672681 7.699248 0 15.911779-1.53985 23.097745-4.619548 16.425063-6.672682 28.74386-20.018045 34.389975-36.956391 9.239098-28.230576-3.592982-60.054135-30.28371-72.886216l-64.673684-32.336842-96.497243-144.745865-1.53985-1.539849-3.079699-3.0797c-1.026566-1.026566-2.053133-1.53985-3.592982-2.566416-1.026566-0.513283-2.053133-1.026566-3.592983-1.539849s-3.079699-0.513283-4.619549-1.026567c-0.513283 0-1.026566-0.513283-2.053132-0.513283h-149.878697c-5.132832 0-9.752381 1.53985-13.858647 5.132832l-148.85213 125.241103c-2.053133 2.053133-4.106266 4.106266-5.646115 6.672682L410.626566 534.841103c-12.318797 24.637594-2.566416 55.434586 22.584462 67.2401 22.584461 11.292231 52.86817 2.566416 65.186967-18.991479l58.001002-95.98396 63.647118-31.823558v186.835087l-44.142356 131.913785H454.768922c-32.336842 0-59.027569 26.177444-59.027569 59.027569 0 32.336842 26.177444 59.027569 59.027569 59.027569h211.472682c6.672682 0 13.345363-3.079699 16.938346-8.725815l63.133834-83.665163 177.59599 204.286717c11.292231 12.83208 27.20401 20.018045 44.142356 20.018045 15.398496 0 30.283709-6.159398 41.57594-16.938346 18.991479-21.044612 21.557895-52.354887 5.646115-75.452631z m-134.4802-467.08772l69.293233 34.903258c7.699248 4.106266 11.805514 13.345363 8.725815 21.557895-2.053133 6.672682-7.185965 9.752381-10.265665 10.778948-2.566416 1.026566-8.212531 2.566416-14.885213-0.513284L877.714286 503.017544l-65.700251-65.700251V366.484211L872.581454 457.848622c2.053133 2.566416 5.132832 5.132832 8.212531 6.672681z m-225.331328 383.93584H454.768922c-8.725815 0-15.911779-7.185965-15.911779-15.91178 0-8.725815 7.185965-15.911779 15.911779-15.911779h137.046617c9.239098 0 17.451629-6.159398 20.531328-14.885213l37.982958-113.948872 67.753383 78.019047-62.620551 82.638597z m323.368421 127.807519c-3.079699 3.079699-6.672682 4.619549-11.292231 4.619549-2.566416 0-7.699248-0.513283-11.805514-5.646116l-293.084711-337.740351V420.892231c0-7.185965-3.592982-14.37193-10.265665-17.964913-6.159398-4.106266-14.37193-4.106266-21.044611-1.026566l-99.576942 50.301754c-3.592982 2.053133-6.672682 4.619549-8.725815 8.212532L461.954887 562.045113c-2.566416 4.106266-7.185965 4.619549-9.752381 3.079699-3.592982-2.053133-5.132832-6.672682-3.592982-10.265664l60.054135-119.594988 140.639599-117.541854H769.924812v327.474686c0 4.106266 1.53985 8.725815 3.592982 12.318797l206.853133 298.730828c4.106266 6.159398 3.079699 14.37193-1.539849 20.018045zM260.234586 433.724311C143.206015 433.724311 46.195489 336.200501 46.195489 219.685213S143.206015 5.646115 260.234586 5.646115 474.273684 102.656642 474.273684 219.685213s-97.52381 214.039098-214.039098 214.039098z m0-389.068672c-97.010526 0-175.542857 77.505764-175.542857 175.542857S162.710777 395.22807 260.234586 395.22807s175.542857-77.505764 175.542858-175.542857S357.245113 44.655639 260.234586 44.655639z" fill="#ffffff" p-id="87806"></path><path d="M279.739348 200.180451h97.010527c11.805514 0 19.504762 7.699248 19.504762 19.504762s-7.699248 19.504762-19.504762 19.504762H260.234586c-11.805514 0-19.504762-7.699248-19.504761-19.504762V102.656642c0-11.805514 7.699248-19.504762 19.504761-19.504762s19.504762 7.699248 19.504762 19.504762v97.523809zM286.925313 566.151378H79.045614c-8.725815 0-15.911779-7.185965-15.911779-15.911779s7.185965-15.911779 15.911779-15.911779H287.438596c8.725815 0 15.911779 7.185965 15.91178 15.911779s-7.699248 15.911779-16.425063 15.911779z m153.471679 135.506767H123.18797c-8.725815 0-15.911779-7.185965-15.91178-15.911779s7.185965-15.911779 15.91178-15.91178h317.209022c8.725815 0 15.911779 7.185965 15.91178 15.91178s-7.185965 15.911779-15.91178 15.911779z m-129.860651 140.639599H76.479198c-8.725815 0-15.911779-7.185965-15.911779-15.911779s7.185965-15.911779 15.911779-15.91178h233.030576c8.725815 0 15.911779 7.185965 15.91178 15.91178s-6.159398 15.911779-14.885213 15.911779z" fill="#ffffff" p-id="87807"></path></svg>