<?xml version="1.0" standalone="no"?><!DOCTYPE svg PUBLIC "-//W3C//DTD SVG 1.1//EN" "http://www.w3.org/Graphics/SVG/1.1/DTD/svg11.dtd"><svg t="1713411559379" class="icon" viewBox="0 0 1024 1024" version="1.1" xmlns="http://www.w3.org/2000/svg" p-id="68300" xmlns:xlink="http://www.w3.org/1999/xlink" width="128" height="128"><path d="M935.463385 355.524923a78.493538 78.493538 0 0 0-88.064-10.633846c-31.113846 13.115077-63.645538 22.370462-97.004308 27.490461a319.094154 319.094154 0 0 0-144.699077-102.636307 133.474462 133.474462 0 1 0-136.822154-136.270769 134.577231 134.577231 0 0 0 74.594462 120.556307 392.546462 392.546462 0 0 0-145.801846 4.489846A210.313846 210.313846 0 0 0 285.499077 328.073846a702.148923 702.148923 0 0 0-118.902154 177.230769 91.411692 91.411692 0 0 0 7.286154 99.800616 77.942154 77.942154 0 0 0 91.411692 20.164923 213.661538 213.661538 0 0 0 91.963077-112.167385v-4.450461c7.286154-15.753846 14.020923-29.144615 20.204308-39.817846-15.123692 48.206769-41.511385 126.148923-51.593846 152.536615a201.255385 201.255385 0 0 0-6.695385 21.858461c0 5.041231 0 9.531077-3.938461 15.123693a258.008615 258.008615 0 0 1-20.204308 62.818461c-7.876923 0-17.408-3.347692-38.715077-16.81723a400.935385 400.935385 0 0 0-74.043077-39.817847 81.329231 81.329231 0 0 0-101.454769 27.490462 96.492308 96.492308 0 0 0 0 108.780308 396.996923 396.996923 0 0 0 148.046769 93.656615c86.921846 38.675692 123.904 47.104 159.232 36.430769 35.367385-10.633846 62.818462-66.717538 83.022769-112.128l7.876923-16.265846c7.246769-16.935385 16.265846-33.122462 26.899693-48.246154 23.158154 2.599385 46.08 7.286154 68.411077 14.020923h10.633846c0.787692 4.923077 1.890462 9.846154 3.387077 14.572308 0 11.815385 5.592615 29.735385 11.776 56.083692 30.838154 145.250462 49.348923 182.823385 90.269538 182.823385a142.966154 142.966154 0 0 0 112.167385-41.511385 68.450462 68.450462 0 0 0 8.979692-59.431384c0-8.979692-4.489846-21.307077-7.876923-35.879385-14.296615-89.009231-38.596923-176.049231-72.310154-259.662769a241.703385 241.703385 0 0 0-126.739692-56.083692c7.286154-19.062154 14.020923-40.96 20.164923-60.534154v-5.632c37.572923 37.572923 56.083692 44.898462 75.697231 42.614154 11.894154 0.630154 23.709538-1.299692 34.776615-5.592616l26.939077-6.695384c17.368615-3.387077 38.124308-9.019077 62.818461-15.163077l52.696616-12.918154a99.761231 99.761231 0 0 0 82.432-68.962462 84.676923 84.676923 0 0 0-24.694154-80.738461zM525.469538 131.229538a75.697231 75.697231 0 1 1 75.697231 76.248616 76.248615 76.248615 0 0 1-75.697231-74.043077v-2.205539z m385.811693 291.052308c0 12.327385-15.675077 20.755692-39.266462 26.348308-56.044308 10.633846-94.759385 21.307077-117.76 28.041846l-25.206154 5.592615-18.510769 4.489847h-8.428308a243.396923 243.396923 0 0 1-47.655384-42.06277 44.819692 44.819692 0 0 0-40.369231-12.327384 47.655385 47.655385 0 0 0-33.673846 29.735384v3.347693c-2.756923 7.286154-5.041231 15.714462-7.837539 24.694153-6.183385 19.062154-12.878769 40.96-19.613538 56.083693a47.655385 47.655385 0 0 0 0 42.614154 44.307692 44.307692 0 0 0 31.940923 29.144615h5.041231l16.265846 5.041231c28.750769 6.183385 56.241231 17.171692 81.329231 32.531692a1658.407385 1658.407385 0 0 1 68.411077 273.683692v7.286154a8.979692 8.979692 0 0 1 0 8.979693s-8.388923 14.572308-56.083693 17.368615a560.955077 560.955077 0 0 1-39.266461-136.822154 939.716923 939.716923 0 0 1-11.776-56.083692c-5.592615-30.326154-10.082462-56.083692-42.614154-59.470769h-15.123692a176.088615 176.088615 0 0 0-101.494154-10.633847 140.209231 140.209231 0 0 0-56.083692 76.8l-8.428308 16.856616a208.620308 208.620308 0 0 1-46.552616 79.635692c-17.368615 5.592615-42.023385 0-119.414153-33.673846l-6.73477-3.347692a448.708923 448.708923 0 0 1-126.188307-67.308308 56.083692 56.083692 0 0 1 6.695384-42.062769s7.325538-13.981538 33.083077-3.938462c19.337846 8.507077 38.084923 18.274462 56.123077 29.184l12.878769 7.286154a112.167385 112.167385 0 0 0 71.24677 24.694154c47.655385 0 62.227692-68.411077 71.207384-107.677539 0-8.428308 3.938462-16.265846 5.592616-23.000615a69.632 69.632 0 0 0 0-8.979692 1936.305231 1936.305231 0 0 0 69.001846-208.029539 56.083692 56.083692 0 0 0-27.490462-56.083692c-28.041846-11.815385-52.145231 12.878769-62.818461 23.552-21.622154 23.630769-38.4 51.2-49.348923 81.289846l-4.489847 8.428308c-17.92 34.225231-35.84 70.104615-61.124923 78.532923-5.592615 0-20.164923 6.144-28.041846-3.387077a31.389538 31.389538 0 0 1-2.756923-34.776615h5.001846v-3.347693a688.128 688.128 0 0 1 109.371077-161.476923 150.291692 150.291692 0 0 1 83.534769-51.593846c50.018462-11.854769 102.006154-11.854769 152.024616 0a248.438154 248.438154 0 0 1 150.252308 95.862154c18.510769 23.552 66.756923 17.959385 157.577846-17.368616a25.796923 25.796923 0 0 1 29.144615 0 20.204308 20.204308 0 0 1 8.428308 26.348308z" fill="#2c2c2c" p-id="68301"></path></svg>