<?xml version="1.0" encoding="UTF-8" standalone="no"?>
<svg
   t="1717402612266"
   class="icon"
   viewBox="0 0 1024 1024"
   version="1.1"
   p-id="10001"
   width="64"
   height="64"
   id="svg2"
   sodipodi:docname="stop_l.svg"
   inkscape:version="1.3.2 (091e20e, 2023-11-25, custom)"
   xmlns:inkscape="http://www.inkscape.org/namespaces/inkscape"
   xmlns:sodipodi="http://sodipodi.sourceforge.net/DTD/sodipodi-0.dtd"
   xmlns="http://www.w3.org/2000/svg"
   xmlns:svg="http://www.w3.org/2000/svg">
  <defs
     id="defs2" />
  <sodipodi:namedview
     id="namedview2"
     pagecolor="#ffffff"
     bordercolor="#000000"
     borderopacity="0.25"
     inkscape:showpageshadow="2"
     inkscape:pageopacity="0.0"
     inkscape:pagecheckerboard="0"
     inkscape:deskcolor="#d1d1d1"
     inkscape:zoom="11.796875"
     inkscape:cx="31.957616"
     inkscape:cy="32"
     inkscape:window-width="1920"
     inkscape:window-height="986"
     inkscape:window-x="-11"
     inkscape:window-y="-11"
     inkscape:window-maximized="1"
     inkscape:current-layer="svg2" />
  <path
     d="M514.4 36C250.8 36 36 250.8 36 514.4s214.8 478.4 478.4 478.4 478.4-214.8 478.4-478.4S777.6 36 514.4 36L514.4 36zM514.4 932.8c-231.2 0-418.4-188-418.4-418.4 0-231.2 188-418.4 418.4-418.4 231.2 0 418.4 188 418.4 418.4C932.8 745.2 745.2 932.8 514.4 932.8L514.4 932.8z"
     fill="#ffffff"
     p-id="10002"
     id="path1" />
  <path
     d="M 593.66706,652 H 395.53294 C 365.46871,652 341.2,627.36907 341.2,597.66706 V 399.53294 C 341.2,369.46871 365.83093,345.2 395.53294,345.2 H 593.66706 C 623.73129,345.2 648,369.83093 648,399.53294 V 597.66706 C 648,627.73129 623.73129,652 593.66706,652 Z"
     fill="#ffffff"
     p-id="10003"
     id="path2"
     style="stroke-width:0.905549" />
</svg>
