<?xml version="1.0" standalone="no"?><!DOCTYPE svg PUBLIC "-//W3C//DTD SVG 1.1//EN" "http://www.w3.org/Graphics/SVG/1.1/DTD/svg11.dtd"><svg t="1704256133668" class="icon" viewBox="0 0 1024 1024" version="1.1" xmlns="http://www.w3.org/2000/svg" p-id="4952" xmlns:xlink="http://www.w3.org/1999/xlink" width="128" height="128"><path d="M352 480a128 128 0 1 1 0-256 128 128 0 0 1 0 256z m0-64a64 64 0 1 0 0-128 64 64 0 0 0 0 128z m320 64a128 128 0 1 1 0-256 128 128 0 0 1 0 256z m0 320a128 128 0 1 1 0-256 128 128 0 0 1 0 256z m0-64a64 64 0 1 0 0-128 64 64 0 0 0 0 128z m-320 64a128 128 0 1 1 0-256 128 128 0 0 1 0 256z m0-64a64 64 0 1 0 0-128 64 64 0 0 0 0 128z" fill="#202425" p-id="4953"></path></svg>