<?xml version="1.0" standalone="no"?><!DOCTYPE svg PUBLIC "-//W3C//DTD SVG 1.1//EN" "http://www.w3.org/Graphics/SVG/1.1/DTD/svg11.dtd"><svg t="1716810982449" class="icon" viewBox="0 0 1024 1024" version="1.1" xmlns="http://www.w3.org/2000/svg" p-id="110708" xmlns:xlink="http://www.w3.org/1999/xlink" width="32" height="32"><path d="M896 256H384V64a64 64 0 0 0-64-64H128a128 128 0 0 0-128 128v768a128 128 0 0 0 128 128h768a128 128 0 0 0 128-128V384a128 128 0 0 0-128-128zM64 128a64 64 0 0 1 64-64h192v192H64z m896 768a64 64 0 0 1-64 64H128a64 64 0 0 1-64-64V320h832a64 64 0 0 1 64 64z" p-id="110709" fill="#2c2c2c"></path><path d="M480 96H640V192a32 32 0 0 0 64 0V64a32 32 0 0 0-32-32h-192a32 32 0 0 0 0 64zM992 32h-192a32 32 0 0 0 0 64H960V192a32 32 0 0 0 64 0V64a32 32 0 0 0-32-32z" p-id="110710" fill="#2c2c2c"></path></svg>