<?xml version="1.0" standalone="no"?><!DOCTYPE svg PUBLIC "-//W3C//DTD SVG 1.1//EN" "http://www.w3.org/Graphics/SVG/1.1/DTD/svg11.dtd"><svg t="1704195523256" class="icon" viewBox="0 0 1024 1024" version="1.1" xmlns="http://www.w3.org/2000/svg" p-id="56815" xmlns:xlink="http://www.w3.org/1999/xlink" width="128" height="128"><path d="M512 0c282.784 0 512 229.216 512 512s-229.216 512-512 512S0 794.784 0 512 229.216 0 512 0z m-6.4 96c-31.808 0-57.6 23.872-57.6 53.344v391.104c0 19.136 11.072 36.8 29.024 46.304l268.8 142.208c27.616 14.624 62.784 5.76 78.592-19.84 15.776-25.6 6.176-58.144-21.44-72.768L563.2 509.504V149.344c0-29.44-25.792-53.344-57.6-53.344z" fill="#000000" p-id="56816"></path></svg>