<?xml version="1.0" standalone="no"?><!DOCTYPE svg PUBLIC "-//W3C//DTD SVG 1.1//EN" "http://www.w3.org/Graphics/SVG/1.1/DTD/svg11.dtd"><svg t="1719795926978" class="icon" viewBox="0 0 1024 1024" version="1.1" xmlns="http://www.w3.org/2000/svg" p-id="10619" xmlns:xlink="http://www.w3.org/1999/xlink" width="64" height="64"><path d="M443.648 162.909091c84.177455 0 162.978909 36.096 218.437818 98.955636a312.552727 312.552727 0 0 1 48.686546-4.235636C883.479273 257.629091 1024 398.126545 1024 570.833455s-140.497455 313.250909-313.204364 313.250909h-477.090909C104.820364 884.061091 0 779.217455 0 650.356364a233.425455 233.425455 0 0 1 142.754909-215.319273c0.069818-0.046545 0.139636-0.046545 0.232727-0.069818 0.069818 0 0.069818-0.046545 0.116364-0.069818l9.611636-3.956364C164.840727 281.134545 290.699636 162.909091 443.671273 162.909091z m0 69.818182C321.163636 232.727273 221.556364 332.334545 221.556364 454.795636c0 14.149818-8.564364 26.926545-21.666909 32.279273l-29.882182 12.264727c-0.046545 0-0.046545 0.023273-0.069818 0.046546A163.677091 163.677091 0 0 0 69.818182 650.379636c0 90.368 73.518545 163.863273 163.863273 163.863273h280.366545c-70.981818-57.483636-116.503273-145.175273-116.503273-243.409454v-26.856728l-24.645818 24.622546a34.816 34.816 0 0 1-49.338182 0 34.909091 34.909091 0 0 1 0-49.338182l84.200728-84.247273a34.792727 34.792727 0 0 1 24.692363-10.216727c8.936727 0 17.873455 3.397818 24.692364 10.24l84.247273 84.200727a34.909091 34.909091 0 1 1-49.384728 49.361455l-24.622545-24.622546v26.856728c0 134.237091 109.195636 243.432727 243.409454 243.432727 134.213818 0 243.362909-109.195636 243.362909-243.432727 0-134.213818-109.149091-243.386182-243.386181-243.386182-17.850182 0-35.584 1.931636-52.712728 5.725091a34.909091 34.909091 0 0 1-33.698909-11.240728 34.443636 34.443636 0 0 1-8.517818-7.354181 221.323636 221.323636 0 0 0-172.218182-81.850182z m267.147636 136.424727c111.220364 0 201.681455 90.484364 201.681455 201.681455a34.909091 34.909091 0 0 1-69.818182 0 132.026182 132.026182 0 0 0-131.863273-131.863273 34.909091 34.909091 0 1 1 0-69.818182z" fill="#2c2c2c" p-id="10620"></path></svg>