<?xml version="1.0" ?><svg viewBox="0 0 24 24" xmlns="http://www.w3.org/2000/svg"><defs><style>.cls-1{fill:none;}.cls-2{fill:#0ba1e6;}.cls-3{fill:#fff;}.cls-4{fill:#005db1;}</style></defs><title/><g data-name="Layer 2" id="Layer_2"><g data-name="Layer 3" id="Layer_3"><rect class="cls-1" height="24" width="24"/><path class="cls-2" d="M1,12C1,4,4,1,12,1S23,4,23,12,20,23,12,23,1,20,1,12"/><path class="cls-3" d="M17,7.32H7A1.68,1.68,0,0,0,5.28,9v6A1.68,1.68,0,0,0,7,16.68h1V18.6l1.21-1.92H17A1.68,1.68,0,0,0,18.72,15V9A1.68,1.68,0,0,0,17,7.32Z"/><path class="cls-4" d="M8.4,13.2A1.2,1.2,0,1,1,9.6,12,1.2,1.2,0,0,1,8.4,13.2Zm3.6,0A1.2,1.2,0,1,1,13.2,12,1.2,1.2,0,0,1,12,13.2Zm3.6,0A1.2,1.2,0,1,1,16.8,12,1.2,1.2,0,0,1,15.6,13.2Z"/></g></g></svg>