<?xml version="1.0" ?><svg height="200" id="Color" viewBox="0 0 200 200" width="200" xmlns="http://www.w3.org/2000/svg"><defs><style>.cls-1{fill:#593a25;}.cls-2{fill:#ffb612;}</style></defs><title/><path class="cls-1" d="M111.58,187.52H88.65a63.83,63.83,0,0,1-63.88-63.89V48.36a27.73,27.73,0,0,1,27.69-27.7h3.73a5.49,5.49,0,1,1,0,11H52.46a16.72,16.72,0,0,0-16.7,16.7v75.27A53,53,0,0,0,88.65,176.5h22.93a52.7,52.7,0,0,0,52.66-52.65V48.36a16.72,16.72,0,0,0-16.7-16.7H142a5.49,5.49,0,0,1,0-11h5.55a27.73,27.73,0,0,1,27.69,27.7v75.53a63.51,63.51,0,0,1-63.65,63.61Z"/><path class="cls-1" d="M116.64,31.66H79.38a5.49,5.49,0,1,1,0-11h37.28a5.49,5.49,0,1,1,0,11Z"/><path class="cls-2" d="M108.2,80.88H63.09a5.49,5.49,0,0,1,0-11H108.2a5.49,5.49,0,0,1,0,11Zm0,24.61H63.09a5.49,5.49,0,0,1,0-11H108.2a5.49,5.49,0,0,1,0,11ZM95.9,130.1H63.09a5.49,5.49,0,0,1,0-11H95.9a5.49,5.49,0,1,1,0,11Z"/><path class="cls-1" d="M67.19,39.86a5.49,5.49,0,0,1-5.49-5.48V18a5.49,5.49,0,0,1,11,0V34.38A5.5,5.5,0,0,1,67.19,39.86Zm61.52,0a5.49,5.49,0,0,1-5.49-5.48V18a5.49,5.49,0,1,1,11,0V34.38A5.49,5.49,0,0,1,128.71,39.86Z"/></svg>